<svg width="19" height="18" viewBox="0 0 19 18" fill="none" xmlns="http://www.w3.org/2000/svg">
<path d="M13.1287 11H12.3277L12.0438 10.73C13.0374 9.59 13.6356 8.11 13.6356 6.5C13.6356 2.91 10.6851 0 7.04512 0C3.40513 0 0.45462 2.91 0.45462 6.5C0.45462 10.09 3.40513 13 7.04512 13C8.67753 13 10.1781 12.41 11.334 11.43L11.6078 11.71V12.5L16.6774 17.49L18.1881 16L13.1287 11V11ZM7.04512 11C4.52045 11 2.48247 8.99 2.48247 6.5C2.48247 4.01 4.52045 2 7.04512 2C9.56978 2 11.6078 4.01 11.6078 6.5C11.6078 8.99 9.56978 11 7.04512 11Z" fill="white"/>
</svg>
