<svg width="21" height="20" viewBox="0 0 21 20" fill="none" xmlns="http://www.w3.org/2000/svg">
<path d="M7.62407 9.75C6.92446 9.75 6.35667 10.31 6.35667 11C6.35667 11.69 6.92446 12.25 7.62407 12.25C8.32367 12.25 8.89147 11.69 8.89147 11C8.89147 10.31 8.32367 9.75 7.62407 9.75ZM13.7076 9.75C13.008 9.75 12.4402 10.31 12.4402 11C12.4402 11.69 13.008 12.25 13.7076 12.25C14.4072 12.25 14.975 11.69 14.975 11C14.975 10.31 14.4072 9.75 13.7076 9.75ZM10.6658 0C5.06898 0 0.526611 4.48 0.526611 10C0.526611 15.52 5.06898 20 10.6658 20C16.2627 20 20.8051 15.52 20.8051 10C20.8051 4.48 16.2627 0 10.6658 0ZM10.6658 18C6.19444 18 2.55446 14.41 2.55446 10C2.55446 9.71 2.57473 9.42 2.60515 9.14C4.99801 8.09 6.89404 6.16 7.88769 3.77C9.72289 6.33 12.7444 8 16.1613 8C16.9522 8 17.7126 7.91 18.4426 7.74C18.6555 8.45 18.7772 9.21 18.7772 10C18.7772 14.41 15.1372 18 10.6658 18Z" fill="white"/>
</svg>
